<?xml version="1.0" standalone="no"?><!DOCTYPE svg PUBLIC "-//W3C//DTD SVG 1.1//EN"
    "http://www.w3.org/Graphics/SVG/1.1/DTD/svg11.dtd">
<svg class="icon" height="196.92px" version="1.1" viewBox="0 0 1040 1024" width="200px"
    xmlns="http://www.w3.org/2000/svg">
    <path
        d="M991.033168 399.828244c-14.744819 0-26.786063 11.707646-26.786063 26.199709l0 466.932572c0 29.103852-23.961738 52.642964-53.56701 52.642964L107.280352 945.603489c-29.613458 0-53.56701-23.539112-53.56701-52.642964l0-761.800299c0-29.101805 23.953551-52.648081 53.56701-52.648081l517.372358 0c14.744819 0 26.786063-11.835559 26.786063-26.322505 0-14.609743-12.041244-26.322505-26.786063-26.322505L101.874225 25.867134c-56.145741 0-101.609189 44.680619-101.609189 99.977016l0 772.310677c0 55.180763 45.463448 99.977016 101.729939 99.977016l814.090223 0c56.148811 0 101.729939-44.678572 101.729939-99.977016L1017.815137 426.028976C1017.694387 411.536914 1005.773893 399.828244 991.033168 399.828244L991.033168 399.828244 991.033168 399.828244 991.033168 399.828244zM493.313406 736.953402l509.387499-500.621858c30.224372-29.702486 27.52489-81.020268-6.260587-114.107851l-48.16293-47.334052c-33.665751-33.205263-85.884043-35.863812-116.106368-6.161327L322.780451 569.476039 493.313406 736.953402 493.313406 736.953402 493.313406 736.953402zM870.13261 106.163925c11.55415-11.349489 31.332612-10.264784 44.112684 2.292206l48.160883 47.330982c12.778024 12.682857 13.762445 32.004925 2.333138 43.355437l-56.517201 55.544037-93.869924-93.578282L870.13261 106.163925 870.13261 106.163925 870.13261 106.163925zM868.044042 293.931403 489.382886 666.073074l-94.480838-92.853781L774.420735 200.228277 868.044042 293.931403 868.044042 293.931403 868.044042 293.931403 868.044042 293.931403zM322.534857 570.31822l-52.335972 188.611705c-2.341325 8.213056 0.12075 16.905018 6.142907 23.065322 6.142907 5.912663 14.985296 8.330736 23.462365 6.03546l191.794188-51.440579-39.199791-38.636972-124.703163 33.44881 34.032094-122.441657L322.534857 570.31822 322.534857 570.31822 322.534857 570.31822zM322.534857 570.31822"
        fill="#283593" />
</svg>