<?xml version="1.0" standalone="no"?><!DOCTYPE svg PUBLIC "-//W3C//DTD SVG 1.1//EN"
    "http://www.w3.org/Graphics/SVG/1.1/DTD/svg11.dtd">
<svg class="icon" height="200.00px" version="1.1" viewBox="0 0 1024 1024" width="200px"
    xmlns="http://www.w3.org/2000/svg">
    <path d="M251.733333 533.333333c0-12.8 8.533333-21.333333 21.333333-21.333333l384 0c12.8 0 21.333333 8.533333 21.333333 21.333333S669.866667 554.666667 657.066667 554.666667l-384 0C264.533333 554.666667 251.733333 546.133333 251.733333 533.333333zM785.066667 640l-512 0c-12.8 0-21.333333 8.533333-21.333333 21.333333S264.533333 682.666667 273.066667 682.666667l512 0c12.8 0 21.333333-8.533333 21.333333-21.333333S797.866667 640 785.066667 640zM785.066667 768l-512 0c-12.8 0-21.333333 8.533333-21.333333 21.333333S264.533333 810.666667 273.066667 810.666667l512 0c12.8 0 21.333333-8.533333 21.333333-21.333333S797.866667 768 785.066667 768zM955.733333 541.866667c-12.8 0-21.333333 8.533333-21.333333 21.333333L934.4 853.333333c0 12.8-29.866667 42.666667-64 42.666667l-682.666667 0c-34.133333 0-64-29.866667-64-64l0-640C123.733333 157.866667 153.6 128 187.733333 128l64 0 0 149.333333C251.733333 337.066667 302.933333 384 358.4 384l541.866667 0 0 0-81.066667 81.066667c-8.533333 8.533333-8.533333 21.333333 0 29.866667 4.266667 4.266667 8.533333 8.533333 17.066667 8.533333 4.266667 0 12.8 0 17.066667-8.533333l115.2-115.2c0 0 0 0 0 0 0 0 4.266667-4.266667 4.266667-8.533333 0-4.266667 0-4.266667 0-8.533333 0 0 0 0 0 0 0 0 0 0 0 0 0-4.266667 0-4.266667 0-8.533333 0-4.266667-4.266667-4.266667-4.266667-4.266667 0 0 0 0 0 0L853.333333 230.4c-8.533333-8.533333-21.333333-8.533333-29.866667 0-8.533333 8.533333-8.533333 21.333333 0 29.866667L904.533333 341.333333l0 0L358.4 341.333333C324.266667 341.333333 294.4 311.466667 294.4 277.333333L294.4 128l149.333333 0 106.666667 0 0 128 128 0c12.8 0 21.333333-8.533333 21.333333-21.333333L699.733333 170.666667c0-34.133333-42.666667-76.8-93.866667-85.333333l-12.8 0-149.333333 0-256 0C132.266667 85.333333 81.066667 132.266667 81.066667 192l0 640c0 59.733333 46.933333 106.666667 106.666667 106.666667l682.666667 0c59.733333 0 106.666667-46.933333 106.666667-85.333333l0 0 0-294.4C977.066667 550.4 968.533333 541.866667 955.733333 541.866667z"
        fill="#FFFFFF" />
</svg>