<?xml version="1.0" standalone="no"?><!DOCTYPE svg PUBLIC "-//W3C//DTD SVG 1.1//EN"
    "http://www.w3.org/Graphics/SVG/1.1/DTD/svg11.dtd">
<svg class="icon" height="200.00px" version="1.1" viewBox="0 0 1024 1024" width="200px"
    xmlns="http://www.w3.org/2000/svg">
    <path d="m31,380c0,36 12,60 36,72c-12,12 -36,48 -36,84c0,54 54,96 138,96l216,0c-36,102 -30,234 18,306c24,42 60,54 78,54c84,0 84,-78 84,-102c0,-84 12,-126 30,-162c12,-18 84,-96 162,-96l138,0c59.99902,0 96,-48 96,-114l-36,-390c-6,-60 -36,-96 -96,-96l-84,0c-18,0 -36,12 -48.00098,24c-12,6 -18,12 -24,12c-6.00104,0 -18,-12 -42,-17.999c-18,-12 -48,-18 -84,-18l-300.00003,0c-102,0 -149.99999,36 -149.99999,102.00001c0,18 5.99999,30 11.99999,42c-41.99999,12 -77.99999,36 -77.99999,78c0,18 6,42 18,48c-6.001,0 -48,36 -48,78l0,0l0,0l0,0l0.001,-0.00101z"
        fill="#F9A825" />
</svg>