<?xml version="1.0" standalone="no"?><!DOCTYPE svg PUBLIC "-//W3C//DTD SVG 1.1//EN"
    "http://www.w3.org/Graphics/SVG/1.1/DTD/svg11.dtd">
<svg class="icon" height="480px" version="1.1" viewBox="0 0 640 480" width="640px"
    xmlns="http://www.w3.org/2000/svg">
    <path
        d="m414.95001,169.70416m-53.58331,0a53.58333,49.85417 0 1 0 107.16666,0a53.58333,49.85417 0 1 0 -107.16666,0z"
        fill="#C8E6C9" />
    <path
        d="m203.93884,268.21606l-171.35949,133.21033a21.43333,19.94167 0 0 1 -27.49897,-30.61057l184.94824,-143.77936a21.43333,19.94167 0 0 1 27.30603,-0.13962l188.91345,143.77948a21.43333,19.94167 0 0 1 -27.13458,30.86975l-175.17468,-133.33002z"
        fill="#9FA8DA" />
    <path
        d="m375.42691,368.0838l-26.36295,-31.44791l255.52814,-185.37775l26.36304,31.46796l-255.52823,185.3577z"
        fill="#9FA8DA" />
    <path
        d="m256.36478,304.76904l130.33609,89.59802l210.4325,-154.86703l0,159.53329a85.73334,79.76667 0 0 1 -85.73337,79.76669l-407.23329,0l-51.65429,-25.80457l203.85236,-148.22641z"
        fill="#C8E6C9" />
    <path
        d="m82.73337,40.08336a42.86667,39.88334 0 0 0 -42.86668,39.88333l0,319.06664a42.86667,39.88334 0 0 0 42.86668,39.88336l471.53329,0a42.86667,39.88334 0 0 0 42.8667,-39.88336l0,-319.06664a42.86667,39.88334 0 0 0 -42.8667,-39.88333l-471.53329,0zm0,-39.88335l471.53329,0a85.73334,79.76667 0 0 1 85.7334,79.76667l0,319.06664a85.73334,79.76667 0 0 1 -85.7334,79.76669l-471.53329,0a85.73334,79.76667 0 0 1 -85.73336,-79.76669l0,-319.06664a85.73334,79.76667 0 0 1 85.73336,-79.76667z"
        fill="#9FA8DA" />
    <path
        d="m203.93884,268.21606l-171.35949,133.21033a21.43333,19.94167 0 0 1 -27.49897,-30.61057l184.94824,-143.77936a21.43333,19.94167 0 0 1 27.30603,-0.13962l188.91345,143.77948a21.43333,19.94167 0 0 1 -27.13458,30.86975l-175.17468,-133.33002z"
        fill="#9FA8DA" />
    <path
        d="m375.42691,368.0838l-26.36295,-31.44791l255.52814,-185.37775l26.36304,31.46796l-255.52823,185.3577zm28.80646,-188.4088a21.43333,19.94167 0 1 0 0,-39.8833a21.43333,19.94167 0 0 0 0,39.8833zm0,39.88336a64.3,59.82499 0 1 1 0,-119.65a64.3,59.82499 0 0 1 0,119.65z"
        fill="#9FA8DA" />
    <text fill="#E8EAF6" font-family="Helvetica, Arial, sans-serif" font-size="128" font-weight="bold" stroke="#283593" stroke-width="1" text-anchor="start" x="131.4375" y="193.28125" xml:space="preserve">Tricks</text>
  <text fill="#E8EAF6" font-family="Helvetica, Arial, sans-serif" font-size="128" font-weight="bold" stroke="#283593" stroke-width="1" text-anchor="start" x="71.0625" y="344" xml:space="preserve">For Live</text>
</svg>