<?xml version="1.0" standalone="no"?><!DOCTYPE svg PUBLIC "-//W3C//DTD SVG 1.1//EN"
    "http://www.w3.org/Graphics/SVG/1.1/DTD/svg11.dtd">
<svg class="icon" height="200.00px" version="1.1" viewBox="0 0 1024 1024" width="200px"
    xmlns="http://www.w3.org/2000/svg">
    <path
        d="M512 864C316.992 864 126.432 733.856 37.792 540.16c-0.48-1.056-0.992-2.496-1.472-4.032-0.864-1.984-1.504-4-1.984-6.08l0.032 0c-0.544-2.464-0.992-5.184-1.12-7.008-0.352-1.344-1.088-7.808-1.088-7.808-0.256-2.272-0.256-4.032-0.032-6.304 0 0 0.736-7.424 1.568-11.168-0.16 0.896-0.128-2.656 1.632-7.744 0.192-0.512 0.384-1.056 0.64-1.6 0.512-1.76 1.216-3.744 2.272-5.856C126.368 290.016 316.928 160 512 160c195.104 0 385.664 130.112 474.176 323.744 0.576 1.216 1.12 2.752 1.6 4.32 0.32 0.704 0.608 1.408 0.832 2.08 0.928 2.72 1.92 7.936 2.08 10.816 0.288 0.544 1.28 5.344 1.28 11.136 0 17.664-14.304 32-32 32-17.312 0-31.424-13.76-31.968-30.944-0.16-0.704-0.352-1.888-0.544-3.104-0.192-0.512-0.384-1.056-0.512-1.536-0.096-0.224-0.16-0.512-0.224-0.8C848.192 338.048 681.76 224 512 224c-169.696 0-336.16 113.984-414.944 283.872-0.128 0.448-0.256 0.864-0.384 1.28-0.096 0.768-0.224 1.504-0.384 2.208l-0.032 0.416c0.032 0.448 0.128 0.864 0.192 1.248 0.032 0.32 0.128 0.768 0.192 1.344 0.192 0.576 0.352 1.152 0.512 1.696 89.344 191.36 288.192 309.92 477.504 278.816 17.536-2.848 33.888 8.96 36.736 26.432 2.848 17.44-8.992 33.888-26.432 36.736C560.8 862.016 536.256 864 512 864z"
        fill="#C62828" />
    <path
        d="M512 672c-88.224 0-160-71.776-160-160s71.776-160 160-160 160 71.776 160 160S600.224 672 512 672zM512 416c-52.928 0-96 43.072-96 96s43.072 96 96 96 96-43.072 96-96S564.928 416 512 416z"
        fill="#C62828" />
    <path
        d="m813.080017,927.104004c-18.783997,0 -32.383972,-11.072021 -43.200012,-21.888l-101.951965,-103.007996c-20.480042,-22.112 -30.880005,-47.392029 -30.880005,-73.952026c0,-57.343994 46.655945,-104 104,-104c26.94397,0 52.47998,10.23999 71.903992,28.895996l0.063965,0.096008c0.127991,-0.127991 0.192017,-0.191956 0.256042,-0.255981c19.583984,-18.59198 45.023987,-28.736023 71.776001,-28.736023c57.343994,0 104,46.656006 104,104c0,35.679993 -15.231995,54.687988 -28.671997,71.424011c-0.672058,0.864014 -1.440002,1.728027 -2.208008,2.496033l-101.824036,102.880005c-10.880005,10.975952 -24.47998,22.047974 -43.263977,22.047974z"
        fill="#C62828" />
</svg>