<?xml version="1.0" standalone="no"?><!DOCTYPE svg PUBLIC "-//W3C//DTD SVG 1.1//EN"
    "http://www.w3.org/Graphics/SVG/1.1/DTD/svg11.dtd">
<svg class="icon" height="199.42px" version="1.1" viewBox="0 0 1027 1024" width="200px"
    xmlns="http://www.w3.org/2000/svg">
    <path fill="#2E7D32"
        d="M1019.343363 148.029428c9.699919 9.699919 9.700943 25.430182 0.001023 35.130102l-529.10661 529.108656c-9.700943 9.700943-25.433252 9.700943-35.134195-0.002047l0 0c-9.701966-9.700943-9.701966-25.430182 0-35.131125l529.10661-529.105586C993.913181 138.327462 1009.641397 138.327462 1019.343363 148.029428L1019.343363 148.029428z" />
    <path fill="#2E7D32"
        d="M488.655745 712.26614c-9.701966 9.702989-25.431206 9.702989-35.133172 0.002047l-296.254308-296.252261c-9.700943-9.700943-9.700943-25.432229 0.002047-35.134195l0 0c9.699919-9.699919 25.431206-9.699919 35.132148 0.00307l296.253284 296.250214C498.356688 686.838004 498.355665 702.564173 488.655745 712.26614L488.655745 712.26614z" />
    <path fill="#2E7D32"
        d="M1015.70858 430.349375c-0.010233-0.063445-0.027629-0.121773-0.036839-0.183172-0.005117-0.029676-0.011256-0.059352-0.01535-0.086981l-0.00307 0.002047c-1.986237-11.534707-12.873192-19.36607-24.464181-17.521049-11.682064 1.858324-19.644409 12.8384-17.785062 24.521486 0.12382 0.773619 0.291642 1.526773 0.493234 2.264577 9.752108 62.107523 7.115048 124.295887-7.850805 184.859241-14.531971 58.794058-40.007179 113.568569-75.720565 162.804946-35.712363 49.237401-79.868025 90.463338-131.244136 122.525568-53.202713 33.211403-111.837134 55.089689-174.274162 65.025992-62.439074 9.939373-124.969223 7.346315-185.852872-7.704472-58.793034-14.527878-113.567545-40.007179-162.801876-75.724659-49.233308-35.713386-90.456175-79.874165-122.521474-131.250276-33.20424-53.204759-55.080479-111.841228-65.018829-174.278255-9.93528-62.432934-7.346315-124.954897 7.701402-185.835476 14.529925-58.790988 40.005133-113.565499 75.719542-162.79369 35.712363-49.232285 79.871095-90.455151 131.247206-122.519428 53.202713-33.205263 111.838158-55.080479 174.276209-65.018829 62.437028-9.93835 124.966153-7.347339 185.848779 7.697309 58.792011 14.530948 113.565499 40.005133 162.79983 75.715449 2.491751 1.810229 4.947685 3.657296 7.390317 5.517667 4.612041 3.983731 10.880815 5.992481 17.372669 4.958942 11.682064-1.858324 19.645432-12.837376 17.786085-24.51944-0.819668-5.158487-3.423983-9.589402-7.078209-12.770861l0.007163-0.002047c-0.058328-0.041956-0.11768-0.088004-0.177032-0.132006-0.6191-0.530073-1.272993-1.016143-1.948375-1.471514-2.737344-2.069125-5.491061-4.122901-8.277524-6.14086-53.723575-38.971593-113.490797-66.768683-177.642886-82.623789-66.434062-16.413831-134.661979-19.24225-202.791659-8.398274-68.12968 10.844999-132.110877 34.717709-190.164061 70.946842-56.060807 34.986839-104.246249 79.966263-143.213749 133.690862-38.968523 53.714366-66.765613 113.480564-82.621742 177.63163-16.418948 66.430992-19.244296 134.655839-8.400321 202.778356 10.842952 68.12968 34.710546 132.110877 70.942749 190.165084 34.990932 56.06183 79.972403 104.249319 133.691885 143.216819 53.721529 38.974663 113.490797 66.774823 177.644933 82.629929 66.435085 16.420995 134.665049 19.249413 202.795752 8.404414 68.130703-10.842952 132.10883-34.714639 190.163037-70.949912 56.060807-34.989909 104.243179-79.971379 143.208633-133.701095 38.97057-53.720505 66.768683-113.490797 82.622766-177.644933 16.418948-66.437132 19.24532-134.666072 8.400321-202.796776-0.061398-0.38374-0.12689-0.76441-0.189312-1.14815C1015.716766 430.443519 1015.716766 430.395424 1015.70858 430.349375z" />
</svg>