<?xml version="1.0" standalone="no"?><!DOCTYPE svg PUBLIC "-//W3C//DTD SVG 1.1//EN"
    "http://www.w3.org/Graphics/SVG/1.1/DTD/svg11.dtd">
<svg class="icon" height="200.00px" version="1.1" viewBox="0 0 1024 1024" width="200px"
    xmlns="http://www.w3.org/2000/svg">
    <path d="m977.836,640.10498c0,-34.93799 -11.64502,-58.22998 -34.93799,-69.875c11.64502,-11.64502 34.93799,-46.58398 34.93799,-81.521c0,-52.40701 -52.40698,-93.168 -133.927,-93.168l-209.62701,0c34.93799,-98.991 29.11603,-227.095 -17.46899,-296.97001c-23.28998,-40.76101 -58.22998,-52.40701 -75.69696,-52.40701c-81.52103,0 -81.52103,75.697 -81.52103,98.991c0,81.52101 -11.64499,122.28201 -29.11499,157.22c-11.64502,17.46899 -81.52103,93.168 -157.22003,93.168l-133.92699,0c-58.23,0 -93.168,46.58401 -93.168,110.63699l34.938,378.49301c5.824,58.22998 34.938,93.16803 93.16801,93.16803l81.52101,0c17.46898,0 34.938,-11.64502 46.584,-23.29004c11.64499,-5.82397 17.46899,-11.64496 23.28998,-11.64496c5.82401,0 17.46902,11.64496 40.76102,17.46899c17.46899,11.64496 46.58499,17.46899 81.521,17.46899l291.14801,0c98.99103,0 145.57404,-34.93799 145.57404,-98.99103c0,-17.46899 -5.82404,-29.11499 -11.64502,-40.76099c40.76099,-11.64502 75.69702,-34.93799 75.69702,-75.69696c0,-17.46906 -5.82404,-40.76105 -17.46906,-46.58405c5.82404,0 46.58405,-34.93799 46.58405,-75.69696l0,0l0,0l0,0l-0.00104,-0.00903z"
        fill="#C62828" />
</svg>