<?xml version="1.0" standalone="no"?><!DOCTYPE svg PUBLIC "-//W3C//DTD SVG 1.1//EN"
    "http://www.w3.org/Graphics/SVG/1.1/DTD/svg11.dtd">
<svg class="icon" height="200.00px" version="1.1" viewBox="0 0 1024 1024" width="200px"
    xmlns="http://www.w3.org/2000/svg">
    <path
        d="M977.836 640.105c0-34.938-11.645-58.23-34.938-69.875 11.645-11.645 34.938-46.584 34.938-81.521 0-52.407-52.407-93.168-133.927-93.168h-209.627c34.938-98.991 29.116-227.095-17.469-296.97-23.29-40.761-58.23-52.407-75.697-52.407-81.521 0-81.521 75.697-81.521 98.991 0 81.521-11.645 122.282-29.115 157.22-11.645 17.469-81.521 93.168-157.22 93.168h-133.927c-58.23 0-93.168 46.584-93.168 110.637l34.938 378.493c5.824 58.23 34.938 93.168 93.168 93.168h81.521c17.469 0 34.938-11.645 46.584-23.29 11.645-5.824 17.469-11.645 23.29-11.645 5.824 0 17.469 11.645 40.761 17.469 17.469 11.645 46.585 17.469 81.521 17.469h291.148c98.991 0 145.574-34.938 145.574-98.991 0-17.469-5.824-29.115-11.645-40.761 40.761-11.645 75.697-34.938 75.697-75.697 0-17.469-5.824-40.761-17.469-46.584 5.824 0 46.584-34.938 46.584-75.697v0 0 0zM244.144 942.898h-81.521c-23.29 0-40.761-23.29-46.584-46.584l-34.938-395.961c0-29.115 23.29-64.052 58.23-64.052v0h139.751v483.305c-5.824 5.824-11.645 5.824-17.469 11.645-5.824 5.824-11.645 11.645-17.469 11.645v0 0 0zM878.846 692.511h-5.824v34.938c5.824 0 17.469 5.824 17.469 34.938 0 34.938-40.761 46.585-81.521 46.585v0 34.938c17.469 5.824 17.469 17.469 17.469 34.938 0 34.938-29.116 64.052-104.813 64.052h-296.97c-11.645 0-40.761-5.824-58.23-17.469-17.469-5.824-40.761-23.29-52.407-29.115v-465.836c75.697-23.29 139.751-87.345 151.398-116.458 17.469-40.761 23.29-81.521 23.29-174.688 0-46.585 17.469-52.407 34.938-52.407 17.469 0 40.761 17.469 52.407 34.938 34.938 58.23 46.584 180.511 0 279.502v34.938h267.856c46.584 0 93.168 23.29 93.168 52.407v11.645c0 0 0 29.116-17.469 40.761-11.645 11.645-23.29 11.645-23.29 11.645v34.938c0 0 17.469 0 23.29 5.824 11.645 5.824 17.469 23.29 17.469 40.761 0 23.29-34.938 58.23-58.23 58.23v0 0 0z"
        fill="#283593"/>
</svg>