<?xml version="1.0" standalone="no"?><!DOCTYPE svg PUBLIC "-//W3C//DTD SVG 1.1//EN"
    "http://www.w3.org/Graphics/SVG/1.1/DTD/svg11.dtd">
<svg class="icon" height="188.58px" version="1.1" viewBox="0 0 1086 1024" width="200px"
    xmlns="http://www.w3.org/2000/svg">
    <path
        d="M997.743956 1024 79.375085 1024C35.531704 1024 0 987.725672 0 942.996855L0 195.688574C0 150.931195 41.844008 110.001185 85.687389 110.001185L485.56187 110.001185C501.2141 110.001185 514.124333 122.597232 514.124333 138.563648 514.124333 154.558628 501.2141 167.126111 485.56187 167.126111L85.687389 167.126111C70.035159 167.126111 57.124926 179.722158 57.124926 195.688574L56.696489 937.198675C56.696489 953.165092 69.378223 966.13245 85.030452 966.13245L992.088588 966.13245C1007.740818 966.13245 1028.248666 954.279028 1028.248666 938.312611L1028.248666 538.43813C1028.248666 522.443151 1041.1589 509.875667 1056.811129 509.875667 1072.463359 509.875667 1085.373592 522.443151 1085.373592 538.43813L1085.373592 938.312611C1085.373592 983.069991 1041.587337 1024 997.743956 1024ZM917.54056 474.372525C909.171758 487.99682 891.548719 492.024127 878.295736 483.398264L876.010739 481.913016C862.872006 473.344277 858.958948 455.606987 867.242063 442.125505L990.003528 242.416764 976.579171 245.61576C798.235152 288.373767 667.990321 368.5486 589.414986 483.94095 533.461121 566.058031 513.667334 654.658792 506.89803 714.582839 503.127785 748.143733 503.441972 781.647502 504.584471 805.86847 505.355657 822.234762 492.673924 835.830494 476.650382 836.030431L473.708448 836.058994C458.598905 836.258931 445.888609 824.376946 445.060298 808.953216 441.60424 743.402364 445.631547 589.279314 540.401799 449.637432 628.31706 320.0781 772.186186 231.048903 968.038994 185.034776L982.605851 181.60728 758.619016 56.932129C744.937596 49.305952 739.853478 31.854287 747.222593 17.830117L748.650717 15.145246C756.076957 1.006827 773.357247-4.248666 787.181479 3.434636L1047.128454 148.103511C1075.805167 164.069928 1085.373592 201.429629 1068.007615 229.677905L917.54056 474.372525Z"
        fill="#283593" />
</svg>