<?xml version="1.0" standalone="no"?><!DOCTYPE svg PUBLIC "-//W3C//DTD SVG 1.1//EN"
    "http://www.w3.org/Graphics/SVG/1.1/DTD/svg11.dtd">
<svg class="icon" height="200.00px" version="1.1" viewBox="0 0 1024 1024" width="200px"
    xmlns="http://www.w3.org/2000/svg">
    <path
        d="M831.602 511.792c-0.032-73.144-24.958-143.898-71.056-200.77a15 15 0 1 0-23.306 18.89 285.314 285.314 0 0 1 5.298 6.766h-118.314a1.034 1.034 0 0 1-1.034-1.034v-91.12a288.04 288.04 0 0 1 70.894 42.234 15 15 0 0 0 18.89-23.306C651.964 214 574.972 188.894 496.204 192.774c-79.342 3.902-153.996 37.01-210.21 93.224s-89.322 130.868-93.222 210.208c-3.876 78.776 21.226 155.76 70.678 216.77a14.966 14.966 0 0 0 11.662 5.556 15 15 0 0 0 11.644-24.446c-44.794-55.264-67.53-125.016-64.02-196.406 3.536-71.886 33.536-139.532 84.474-190.468 50.938-50.938 118.582-80.938 190.468-84.474 5.128-0.252 10.246-0.354 15.352-0.336v67.896a16.948 16.948 0 0 1-5 12.066l-45.344 45.346a16.954 16.954 0 0 1-12.068 4.998h-38.312c-6.278-18.616-23.892-32.064-44.6-32.064-25.952 0-47.064 21.114-47.064 47.064 0 25.952 21.114 47.066 47.064 47.066 20.708 0 38.32-13.448 44.6-32.066h38.312a46.76 46.76 0 0 0 33.282-13.784l45.344-45.346a46.758 46.758 0 0 0 13.788-33.28v-66.252a289.5 289.5 0 0 1 50.16 9.912v101.686c0 17.112 13.922 31.034 31.034 31.034h138.35a287.952 287.952 0 0 1 23.018 50.162h-196.932c-6.278-18.616-23.892-32.064-44.6-32.064-25.952 0-47.064 21.114-47.064 47.064s21.114 47.064 47.064 47.064c20.708 0 38.32-13.448 44.6-32.064h205.568a290.098 290.098 0 0 1 6.982 50.162h-163.706a46.768 46.768 0 0 0-33.282 13.786l-45.344 45.346a16.962 16.962 0 0 1-12.068 4.998h-54.344c-6.278-18.616-23.892-32.064-44.6-32.064-25.952 0-47.064 21.114-47.064 47.064s21.114 47.064 47.064 47.064c20.708 0 38.32-13.448 44.6-32.064h54.344a46.764 46.764 0 0 0 33.282-13.786L625.438 532a16.962 16.962 0 0 1 12.068-4.998h163.712a289.912 289.912 0 0 1-7.016 50.162h-124.632a46.768 46.768 0 0 0-33.282 13.786l-93.444 93.444a46.76 46.76 0 0 0-13.784 33.278v83.426c-0.916 0.054-1.83 0.122-2.746 0.166a290.616 290.616 0 0 1-79.48-7.032v-76.56a46.754 46.754 0 0 0-13.784-33.28l-77.412-77.41a16.958 16.958 0 0 1-4.998-12.066v-54.346c18.616-6.278 32.064-23.892 32.064-44.598 0-25.952-21.114-47.064-47.064-47.064s-47.064 21.114-47.064 47.064c0 20.708 13.448 38.32 32.064 44.598v54.346a46.756 46.756 0 0 0 13.786 33.28l77.412 77.412a16.958 16.958 0 0 1 4.996 12.066v67.924a288.06 288.06 0 0 1-86.926-48.352 15 15 0 0 0-18.89 23.306c56.91 46.128 127.716 71.068 200.914 71.068 5.274 0 10.562-0.13 15.856-0.39 79.342-3.902 153.996-37.01 210.21-93.224s89.322-130.868 93.222-210.208c0.256-5.222 0.378-10.436 0.38-15.64 0-0.052 0.008-0.1 0.008-0.152 0.006-0.076-0.004-0.144-0.006-0.214z m-463.894-127.018c-9.41 0-17.064-7.656-17.064-17.066 0-9.408 7.654-17.064 17.064-17.064s17.064 7.656 17.064 17.064c0.002 9.412-7.652 17.066-17.064 17.066z m176.356 64.13c-9.41 0-17.064-7.656-17.064-17.064s7.654-17.064 17.064-17.064 17.064 7.656 17.064 17.064-7.654 17.064-17.064 17.064z m-96.192 144.29c-9.41 0-17.064-7.656-17.064-17.064 0-9.408 7.654-17.064 17.064-17.064s17.064 7.656 17.064 17.064c0 9.408-7.654 17.064-17.064 17.064z m-112.228-80.162c-9.41 0-17.064-7.656-17.064-17.064 0-9.408 7.654-17.064 17.064-17.064s17.064 7.656 17.064 17.064c0 9.408-7.654 17.064-17.064 17.064z m381.144 203.756c-43.122 43.122-98.218 71.232-157.722 80.99v-80.11a16.96 16.96 0 0 1 4.998-12.066l93.442-93.442a16.956 16.956 0 0 1 12.068-5h115.992c-14.218 40.904-37.558 78.406-68.778 109.628z" />
    <path
        d="M1020.404 451.65c-2.362-19.846-19.064-34.812-38.852-34.812h-48.314c-10.826-48.242-29.642-93.69-56.068-135.43l34.144-34.144c13.992-13.996 15.218-36.388 2.854-52.088a513.524 513.524 0 0 0-40.128-45.214 513.488 513.488 0 0 0-45.214-40.128c-15.7-12.366-38.096-11.14-52.09 2.854l-34.142 34.144c-41.738-26.426-87.188-45.242-135.43-56.068V42.448c0-19.79-14.966-36.492-34.816-38.852C552.272 1.208 531.968 0 512 0s-40.272 1.208-60.346 3.596c-19.85 2.36-34.816 19.062-34.816 38.852v48.314c-48.242 10.826-93.692 29.642-135.43 56.068l-34.142-34.142c-14-13.998-36.39-15.22-52.088-2.856A513.264 513.264 0 0 0 149.962 149.96a512.82 512.82 0 0 0-40.126 45.214c-12.368 15.702-11.14 38.094 2.852 52.09l34.144 34.144c-26.424 41.736-45.24 87.186-56.066 135.43H42.448c-19.788 0-36.49 14.966-38.852 34.814A512.788 512.788 0 0 0 0 512c0 19.972 1.208 40.276 3.596 60.35 2.362 19.846 19.064 34.812 38.852 34.812h48.316c10.826 48.246 29.642 93.694 56.066 135.428l-34.144 34.146c-13.992 13.996-15.218 36.388-2.854 52.088a513.56 513.56 0 0 0 40.128 45.214 513.488 513.488 0 0 0 45.214 40.128c15.704 12.366 38.096 11.14 52.09-2.854l34.142-34.142c41.738 26.424 87.188 45.242 135.43 56.068v48.316c0 19.79 14.966 36.492 34.816 38.852C471.728 1022.792 492.032 1024 512 1024s40.272-1.208 60.346-3.596c19.85-2.36 34.816-19.062 34.816-38.852v-48.316c48.242-10.826 93.692-29.642 135.43-56.068l34.142 34.142c13.996 13.996 36.388 15.218 52.088 2.856a513.272 513.272 0 0 0 45.214-40.128 512.556 512.556 0 0 0 40.128-45.214c12.368-15.702 11.14-38.094-2.852-52.09l-34.144-34.144c26.426-41.738 45.242-87.186 56.068-135.43h48.314c19.788 0 36.49-14.966 38.852-34.814A512.304 512.304 0 0 0 1024 512c0-19.972-1.208-40.276-3.596-60.35z m-29.788 117.154c-0.566 4.764-4.462 8.356-9.062 8.356h-60.496a14.996 14.996 0 0 0-14.722 12.132c-10.3 52.864-30.764 102.292-60.824 146.912a15.002 15.002 0 0 0 1.834 18.988l42.756 42.754c3.252 3.252 3.466 8.546 0.498 12.316a482.702 482.702 0 0 1-37.774 42.562 483.024 483.024 0 0 1-42.562 37.774c-3.766 2.97-9.06 2.752-12.312-0.5l-42.756-42.754a15.002 15.002 0 0 0-18.988-1.834c-44.62 30.058-94.048 50.522-146.912 60.824a15 15 0 0 0-12.13 14.722v60.496c0 4.6-3.592 8.496-8.356 9.062A483.032 483.032 0 0 1 512 994c-18.79 0-37.902-1.138-56.806-3.386-4.764-0.566-8.356-4.462-8.356-9.062v-60.496a15 15 0 0 0-12.13-14.722c-52.864-10.302-102.292-30.766-146.912-60.824a14.956 14.956 0 0 0-8.376-2.56 14.99 14.99 0 0 0-10.614 4.394l-42.756 42.754c-3.252 3.25-8.546 3.468-12.312 0.498a482.132 482.132 0 0 1-42.562-37.774A483.046 483.046 0 0 1 133.4 810.26c-2.966-3.768-2.752-9.062 0.5-12.314l42.756-42.756a15.002 15.002 0 0 0 1.834-18.988c-30.056-44.616-50.522-94.046-60.824-146.912a15 15 0 0 0-14.722-12.13H42.448c-4.6 0-8.496-3.592-9.062-8.354C31.138 549.906 30 530.792 30 512s1.138-37.906 3.384-56.804c0.566-4.764 4.462-8.356 9.062-8.356h60.496a14.996 14.996 0 0 0 14.722-12.13c10.302-52.866 30.766-102.294 60.824-146.914a15.002 15.002 0 0 0-1.834-18.988L133.9 226.052c-3.252-3.252-3.466-8.546-0.498-12.316a482.952 482.952 0 0 1 37.774-42.562A483.024 483.024 0 0 1 213.738 133.4c3.768-2.968 9.062-2.752 12.312 0.5l42.756 42.754a15 15 0 0 0 18.988 1.834c44.62-30.058 94.048-50.522 146.912-60.822a15 15 0 0 0 12.13-14.724V42.448c0-4.6 3.592-8.496 8.356-9.062C474.098 31.138 493.21 30 512 30s37.902 1.138 56.806 3.386c4.764 0.566 8.356 4.462 8.356 9.062v60.496a15.002 15.002 0 0 0 12.13 14.724c52.864 10.3 102.292 30.764 146.912 60.822a15 15 0 0 0 18.988-1.834l42.756-42.756c3.25-3.25 8.544-3.468 12.312-0.498a482.452 482.452 0 0 1 42.562 37.774 483.036 483.036 0 0 1 37.776 42.564c2.966 3.768 2.752 9.062-0.5 12.314l-42.756 42.754a15.002 15.002 0 0 0-1.834 18.988c30.06 44.622 50.524 94.05 60.824 146.912a15 15 0 0 0 14.722 12.132h60.496c4.6 0 8.496 3.592 9.062 8.354C992.862 474.094 994 493.208 994 512s-1.138 37.906-3.384 56.804z" />
</svg>